REM DIRINDEX 1\2,1\3,1\4,1\5,1\6,1\7,1\8
REM DIRNAME folder01,folder02,folder03,folder04,folder05,folder06,folder07,folder08
TITLE ""
FILE "003 ‚Å‚é•¶33.mp3" MP3
  TRACK 01 AUDIO
    TITLE "0:"
    INDEX 01 00:00:00
  TRACK 02 AUDIO
    TITLE "8:cjc150_1518"
    INDEX 01 00:00:01
  TRACK 03 AUDIO
    TITLE "0:"
    INDEX 01 00:01:66
  TRACK 04 AUDIO
    TITLE "2:cjc150_1519"
    INDEX 01 00:02:59
  TRACK 05 AUDIO
    TITLE "0:"
    INDEX 01 00:09:36
  TRACK 06 AUDIO
    TITLE "8:cjc150_1520"
    INDEX 01 00:10:65
  TRACK 07 AUDIO
    TITLE "0:"
    INDEX 01 00:13:43
  TRACK 08 AUDIO
    TITLE "3:cjc150_1521"
    INDEX 01 00:14:07
  TRACK 09 AUDIO
    TITLE "3:cjc150_1522"
    INDEX 01 00:16:24
  TRACK 10 AUDIO
    TITLE "3:cjc150_1523"
    INDEX 01 00:18:41
  TRACK 11 AUDIO
    TITLE "3:cjc150_1524"
    INDEX 01 00:20:10
  TRACK 12 AUDIO
    TITLE "3:cjc150_1525"
    INDEX 01 00:21:45
  TRACK 13 AUDIO
    TITLE "3:cjc150_1526"
    INDEX 01 00:23:67
  TRACK 14 AUDIO
    TITLE "3:cjc150_1527"
    INDEX 01 00:26:07
  TRACK 15 AUDIO
    TITLE "3:cjc150_1528"
    INDEX 01 00:27:61
  TRACK 16 AUDIO
    TITLE "3:cjc150_1529"
    INDEX 01 00:29:29
  TRACK 17 AUDIO
    TITLE "3:cjc150_1530"
    INDEX 01 00:30:59
  TRACK 18 AUDIO
    TITLE "8:cjc150_1531"
    INDEX 01 00:32:11
  TRACK 19 AUDIO
    TITLE "0:"
    INDEX 01 00:34:63
  TRACK 20 AUDIO
    TITLE "4:cjc150_1532"
    INDEX 01 00:35:25
  TRACK 21 AUDIO
    TITLE "4:cjc150_1533"
    INDEX 01 00:37:42
  TRACK 22 AUDIO
    TITLE "4:cjc150_1534"
    INDEX 01 00:40:07
  TRACK 23 AUDIO
    TITLE "4:cjc150_1535"
    INDEX 01 00:43:15
  TRACK 24 AUDIO
    TITLE "4:cjc150_1536"
    INDEX 01 00:46:49
  TRACK 25 AUDIO
    TITLE "4:cjc150_1537"
    INDEX 01 00:49:14
  TRACK 26 AUDIO
    TITLE "8:cjc150_1538"
    INDEX 01 00:52:10
  TRACK 27 AUDIO
    TITLE "0:"
    INDEX 01 00:55:03
  TRACK 28 AUDIO
    TITLE "5:cjc150_1539"
    INDEX 01 00:55:46
  TRACK 29 AUDIO
    TITLE "5:cjc150_1540"
    INDEX 01 00:57:23
  TRACK 30 AUDIO
    TITLE "5:cjc150_1541"
    INDEX 01 01:00:21
  TRACK 31 AUDIO
    TITLE "5:cjc150_1542"
    INDEX 01 01:02:42
  TRACK 32 AUDIO
    TITLE "5:cjc150_1543"
    INDEX 01 01:04:52
  TRACK 33 AUDIO
    TITLE "5:cjc150_1544"
    INDEX 01 01:05:58
  TRACK 34 AUDIO
    TITLE "5:cjc150_1545"
    INDEX 01 01:08:05
  TRACK 35 AUDIO
    TITLE "5:cjc150_1546"
    INDEX 01 01:09:50
  TRACK 36 AUDIO
    TITLE "5:cjc150_1547"
    INDEX 01 01:10:71
  TRACK 37 AUDIO
    TITLE "5:cjc150_1548"
    INDEX 01 01:13:00
  TRACK 38 AUDIO
    TITLE "5:cjc150_1549"
    INDEX 01 01:16:09
  TRACK 39 AUDIO
    TITLE "5:cjc150_1550"
    INDEX 01 01:18:35
  TRACK 40 AUDIO
    TITLE "5:cjc150_1551"
    INDEX 01 01:20:53
  TRACK 41 AUDIO
    TITLE "5:cjc150_1552"
    INDEX 01 01:22:56
  TRACK 42 AUDIO
    TITLE "5:cjc150_1553"
    INDEX 01 01:25:21
  TRACK 43 AUDIO
    TITLE "5:cjc150_1554"
    INDEX 01 01:27:03
  TRACK 44 AUDIO
    TITLE "5:cjc150_1555"
    INDEX 01 01:28:41
  TRACK 45 AUDIO
    TITLE "5:cjc150_1556"
    INDEX 01 01:29:60
  TRACK 46 AUDIO
    TITLE "5:cjc150_1557"
    INDEX 01 01:32:00
  TRACK 47 AUDIO
    TITLE "5:cjc150_1558"
    INDEX 01 01:33:33
  TRACK 48 AUDIO
    TITLE "8:cjc150_1559"
    INDEX 01 01:34:54
  TRACK 49 AUDIO
    TITLE "0:"
    INDEX 01 01:37:34
  TRACK 50 AUDIO
    TITLE "6:cjc150_1560"
    INDEX 01 01:38:10
  TRACK 51 AUDIO
    TITLE "6:cjc150_1561"
    INDEX 01 01:39:59
  TRACK 52 AUDIO
    TITLE "6:cjc150_1562"
    INDEX 01 01:42:55
  TRACK 53 AUDIO
    TITLE "6:cjc150_1563"
    INDEX 01 01:44:68
  TRACK 54 AUDIO
    TITLE "6:cjc150_1564"
    INDEX 01 01:47:01
  TRACK 55 AUDIO
    TITLE "6:cjc150_1565"
    INDEX 01 01:49:41
  TRACK 56 AUDIO
    TITLE "6:cjc150_1566"
    INDEX 01 01:53:33
  TRACK 57 AUDIO
    TITLE "6:cjc150_1567"
    INDEX 01 01:56:41
  TRACK 58 AUDIO
    TITLE "6:cjc150_1568"
    INDEX 01 01:59:38
  TRACK 59 AUDIO
    TITLE "6:cjc150_1569"
    INDEX 01 02:02:13
  TRACK 60 AUDIO
    TITLE "6:cjc150_1570"
    INDEX 01 02:05:36
  TRACK 61 AUDIO
    TITLE "6:cjc150_1571"
    INDEX 01 02:08:05
  TRACK 62 AUDIO
    TITLE "8:cjc150_1572"
    INDEX 01 02:09:66
  TRACK 63 AUDIO
    TITLE "0:"
    INDEX 01 02:11:45
  TRACK 64 AUDIO
    TITLE "7:cjc150_1573"
    INDEX 01 02:12:38
  TRACK 65 AUDIO
    TITLE "7:cjc150_1574"
    INDEX 01 02:19:15
  TRACK 66 AUDIO
    TITLE "0:"
    INDEX 01 02:25:61
